<?xml version="1.0" standalone="no"?>
<!DOCTYPE svg PUBLIC "-//W3C//DTD SVG 20010904//EN"
 "http://www.w3.org/TR/2001/REC-SVG-20010904/DTD/svg10.dtd">
<svg version="1.0" xmlns="http://www.w3.org/2000/svg"
 width="460.000000pt" height="330.000000pt" viewBox="0 0 460.000000 330.000000"
 preserveAspectRatio="xMidYMid meet">

<g transform="translate(0.000000,330.000000) scale(0.100000,-0.100000)"
fill="#000000" stroke="none">
<path d="M2052 2937 c-5 -6 -28 -48 -50 -93 l-41 -81 -68 -18 c-53 -14 -78
-27 -113 -60 -43 -41 -49 -44 -133 -54 -123 -16 -120 -15 -113 -74 10 -68 43
-136 80 -158 35 -22 57 -26 177 -34 l86 -7 61 -183 c34 -101 62 -189 62 -196
0 -7 -35 -92 -77 -190 l-78 -178 -42 -10 c-52 -13 -88 -45 -107 -92 -13 -31
-13 -39 -1 -55 12 -17 31 -19 203 -22 l190 -3 4 23 c2 13 20 34 45 50 56 38
61 67 27 143 -30 65 -34 111 -20 232 11 90 -2 126 -53 152 -45 23 -67 48 -76
83 -6 24 -3 29 21 39 16 5 41 25 57 44 15 18 43 39 62 45 32 11 34 14 37 62
l3 51 55 -47 c79 -67 104 -105 130 -198 31 -113 66 -158 157 -203 133 -67 190
-127 217 -229 8 -32 17 -60 20 -63 10 -10 56 47 56 70 0 13 -14 63 -31 113
-21 61 -32 116 -36 176 l-6 88 -95 101 c-53 55 -139 136 -191 178 -158 128
-199 179 -261 322 -61 144 -126 275 -139 283 -5 3 -13 0 -19 -7z"/>
<path d="M2884 2274 c3 -26 6 -72 6 -104 0 -51 3 -58 25 -68 49 -22 18 -89
-35 -77 -23 5 -30 2 -35 -14 -7 -24 10 -116 31 -167 30 -72 45 -162 34 -203
-12 -44 -65 -97 -108 -107 -15 -4 -40 -22 -56 -41 -16 -19 -38 -39 -50 -43
-18 -8 -16 -9 14 -11 105 -6 156 7 206 53 72 67 91 159 53 270 l-20 61 25 26
c64 66 88 182 58 277 -21 66 -83 169 -112 184 -36 19 -43 13 -36 -36z"/>
<path d="M2384 1749 c-52 -15 -71 -46 -102 -169 -16 -63 -33 -123 -37 -132 -5
-13 -2 -18 9 -18 9 0 21 11 26 24 11 31 39 46 82 46 l33 0 -37 30 c-42 35 -54
75 -38 125 18 54 62 85 123 86 41 1 47 3 27 9 -32 10 -48 10 -86 -1z"/>
<path d="M380 980 c0 -5 5 -10 10 -10 16 0 13 -257 -2 -264 -10 -5 -10 -7 0
-12 15 -7 16 -76 0 -92 -9 -9 -3 -12 30 -12 39 0 42 2 38 23 -6 25 -9 57 -7
72 0 6 17 17 36 24 53 19 87 70 87 129 0 94 -55 152 -144 152 -27 0 -48 -4
-48 -10z m143 -51 c23 -25 27 -38 27 -85 0 -51 -3 -59 -35 -91 -57 -57 -69
-45 -73 72 -4 126 1 148 31 140 12 -4 34 -20 50 -36z"/>
<path d="M765 980 c-3 -5 1 -10 9 -10 13 0 16 -27 18 -180 3 -171 2 -179 -17
-186 -13 -5 2 -9 44 -11 75 -5 114 8 130 43 19 42 13 74 -19 106 l-30 30 25
30 c46 55 30 145 -32 177 -27 14 -120 15 -128 1z m139 -31 c21 -17 26 -29 26
-66 0 -38 -5 -50 -34 -79 -19 -19 -39 -34 -45 -34 -7 0 -11 34 -11 100 0 91 2
100 19 100 10 0 30 -9 45 -21z m11 -224 c14 -13 25 -35 25 -49 0 -29 -42 -66
-76 -66 -23 0 -24 3 -24 63 0 35 3 67 7 70 14 14 45 6 68 -18z"/>
<path d="M1530 980 c0 -5 5 -10 10 -10 16 0 13 -257 -2 -263 -9 -4 -10 -8 -2
-14 16 -12 24 -79 11 -92 -8 -8 1 -11 33 -11 34 0 41 3 32 12 -7 7 -12 29 -12
49 0 34 4 40 42 61 61 34 83 69 82 133 0 59 -31 116 -72 134 -29 14 -122 14
-122 1z m108 -21 c44 -15 66 -54 66 -117 1 -49 -2 -56 -36 -88 -64 -58 -68
-52 -68 91 0 69 2 125 4 125 1 0 17 -5 34 -11z"/>
<path d="M1985 956 c-71 -75 -75 -247 -8 -327 36 -43 66 -52 108 -34 21 8 35
10 35 4 0 -6 5 -7 10 -4 13 8 13 112 0 120 -5 3 -12 -12 -16 -34 -7 -45 -33
-74 -61 -69 -10 1 -28 23 -40 48 -33 68 -33 81 2 94 69 25 107 79 109 152 2
87 -77 115 -139 50z m115 -22 c15 -40 -4 -97 -45 -133 -68 -59 -90 -35 -61 64
26 85 86 124 106 69z"/>
<path d="M2340 963 c1 -24 2 -25 11 -10 7 12 23 17 54 17 l45 0 0 -178 c0
-125 -4 -182 -12 -190 -9 -9 -3 -12 30 -12 23 0 42 5 42 10 0 6 -4 10 -10 10
-11 0 -14 317 -4 344 10 26 68 21 82 -6 11 -22 12 -22 9 7 l-2 30 -122 3 -123
3 0 -28z"/>
<path d="M2960 975 c0 -12 -4 -13 -19 -5 -55 29 -120 -3 -152 -74 -26 -57 -25
-176 0 -233 20 -44 62 -73 104 -73 29 0 77 35 77 57 0 11 -8 8 -31 -11 -37
-31 -53 -32 -79 -6 -31 31 -40 64 -40 143 1 114 52 203 104 179 13 -6 27 -20
31 -32 3 -11 11 -18 16 -15 12 8 12 85 -1 85 -5 0 -10 -7 -10 -15z"/>
<path d="M3615 974 c23 -24 20 -250 -4 -264 -14 -8 -14 -9 2 -15 20 -8 24 -74
5 -93 -9 -9 -3 -12 29 -12 l40 0 -5 51 c-8 80 32 90 69 17 16 -31 18 -43 8
-54 -9 -12 -6 -14 21 -14 25 0 30 3 22 13 -5 6 -13 23 -17 37 -4 14 -16 37
-26 51 -17 24 -17 28 -3 40 48 40 59 143 21 200 -30 44 -60 59 -125 59 -49 0
-52 -1 -37 -16z m138 -45 c50 -54 31 -161 -34 -195 -17 -8 -34 -13 -37 -9 -10
10 -15 169 -7 211 5 30 9 34 28 29 12 -4 34 -20 50 -36z"/>
<path d="M4067 970 c-14 -11 -35 -45 -46 -76 -60 -160 23 -346 134 -299 21 8
35 10 35 4 0 -6 5 -7 10 -4 13 8 13 115 0 115 -5 0 -12 -15 -16 -34 -7 -40
-35 -69 -61 -64 -20 3 -63 81 -63 114 0 16 8 23 29 27 62 13 122 111 106 176
-15 61 -77 81 -128 41z m99 -25 c24 -37 11 -91 -36 -137 -38 -38 -80 -51 -80
-24 0 42 27 120 52 151 35 42 42 43 64 10z"/>
<path d="M3282 963 c-17 -34 -51 -148 -72 -243 -12 -52 -26 -100 -32 -107 -8
-10 -5 -13 14 -13 19 0 24 5 23 28 0 26 3 27 50 30 63 3 85 -9 67 -38 -12 -19
-10 -20 33 -20 45 0 45 0 31 23 -8 12 -23 79 -35 149 -31 184 -54 240 -79 191z
m27 -173 c21 -118 20 -120 -46 -120 -51 0 -51 0 -23 111 24 92 41 138 46 124
2 -5 12 -57 23 -115z"/>
<path d="M2925 440 c-3 -5 -1 -10 4 -10 6 0 11 5 11 10 0 6 -2 10 -4 10 -3 0
-8 -4 -11 -10z"/>
<path d="M3840 439 c0 -5 9 -9 20 -9 11 0 20 4 20 8 0 4 -9 8 -20 9 -11 1 -20
-2 -20 -8z"/>
<path d="M446 405 c-3 -9 3 -23 14 -32 24 -21 26 -33 5 -33 -8 0 -15 -5 -15
-11 0 -6 10 -9 22 -7 32 4 35 37 7 59 -20 15 -21 19 -6 19 9 0 17 5 17 10 0
16 -37 12 -44 -5z"/>
<path d="M550 370 c0 -49 1 -50 30 -50 17 0 30 5 30 10 0 6 -9 10 -20 10 -11
0 -20 5 -20 10 0 6 7 10 15 10 8 0 15 5 15 10 0 6 -7 10 -15 10 -8 0 -15 5
-15 10 0 6 7 10 15 10 8 0 15 5 15 10 0 6 -11 10 -25 10 -23 0 -25 -3 -25 -50z"/>
<path d="M650 386 c0 -38 21 -66 51 -66 21 0 39 35 39 76 0 39 -18 28 -22 -13
-2 -30 -7 -38 -23 -38 -16 0 -21 8 -23 38 -4 46 -22 49 -22 3z"/>
<path d="M1000 371 c0 -28 5 -51 10 -51 6 0 10 14 10 30 0 26 3 29 18 21 11
-6 24 -6 35 0 14 9 17 5 19 -23 1 -28 2 -26 7 12 4 25 5 47 4 49 -1 2 -13 -3
-27 -12 -23 -15 -26 -15 -50 4 l-26 20 0 -50z"/>
<path d="M1163 370 c0 -30 2 -43 4 -27 2 15 2 39 0 55 -2 15 -4 2 -4 -28z"/>
<path d="M1236 404 c-21 -20 -20 -48 0 -69 22 -21 53 -16 72 13 14 21 13 22
-14 21 -16 0 -23 -3 -16 -6 21 -8 13 -25 -10 -21 -17 2 -23 10 -23 28 0 22 4
25 33 23 27 -1 31 1 21 13 -15 19 -44 18 -63 -2z"/>
<path d="M1376 404 c-21 -21 -20 -47 2 -67 23 -21 46 -22 66 -1 31 30 9 84
-34 84 -10 0 -26 -7 -34 -16z m59 -34 c0 -18 -6 -26 -23 -28 -24 -4 -38 18
-28 44 3 9 15 14 28 12 17 -2 23 -10 23 -28z"/>
<path d="M1590 370 c0 -49 1 -50 29 -50 34 0 61 23 61 50 0 23 -36 50 -67 50
-21 0 -23 -5 -23 -50z m65 0 c0 -18 -6 -26 -22 -28 -20 -3 -23 1 -23 28 0 27
3 31 23 28 16 -2 22 -10 22 -28z"/>
<path d="M1730 370 c0 -47 2 -50 25 -50 14 0 25 5 25 10 0 6 -7 10 -16 10 -9
0 -14 6 -11 13 2 6 10 11 16 10 6 -2 11 2 11 7 0 6 -7 10 -15 10 -8 0 -15 5
-15 10 0 6 7 10 15 10 8 0 15 5 15 10 0 6 -11 10 -25 10 -23 0 -25 -3 -25 -50z"/>
<path d="M1920 371 l0 -49 29 14 c54 27 46 84 -11 84 -15 0 -18 -8 -18 -49z
m47 13 c6 -16 -15 -37 -29 -28 -4 3 -8 14 -8 25 0 23 28 26 37 3z"/>
<path d="M2130 410 c0 -5 5 -10 10 -10 6 0 10 -18 10 -40 0 -22 5 -40 10 -40
6 0 10 16 10 36 0 23 6 42 18 50 15 12 13 13 -20 14 -21 0 -38 -4 -38 -10z"/>
<path d="M2353 403 c-4 -11 1 -22 15 -31 28 -18 28 -30 0 -35 -20 -3 -21 -4
-5 -11 25 -12 47 0 47 25 0 12 -8 23 -20 26 -24 6 -27 23 -4 23 8 0 12 5 9 10
-10 16 -35 12 -42 -7z"/>
<path d="M2540 370 c0 -49 1 -50 30 -50 17 0 30 5 30 10 0 6 -9 10 -20 10 -27
0 -25 28 3 33 l22 4 -22 2 c-25 1 -32 21 -8 21 8 0 15 5 15 10 0 6 -11 10 -25
10 -23 0 -25 -3 -25 -50z"/>
<path d="M2722 400 c-22 -18 -25 -18 -48 -4 l-24 16 1 -48 c1 -27 3 -40 6 -29
10 45 12 48 28 35 12 -10 18 -10 30 0 13 11 15 8 15 -19 0 -17 5 -31 10 -31 6
0 10 23 10 50 0 28 -1 50 -2 50 -2 -1 -13 -9 -26 -20z"/>
<path d="M2896 404 c-31 -30 -9 -84 34 -84 24 0 50 26 50 49 0 22 -30 51 -53
51 -8 0 -23 -7 -31 -16z m59 -34 c0 -18 -6 -26 -23 -28 -13 -2 -25 3 -28 12
-10 26 4 48 28 44 17 -2 23 -10 23 -28z"/>
<path d="M3010 411 c0 -5 6 -11 14 -14 8 -3 17 -23 19 -44 l4 -38 1 43 c2 30
6 42 17 42 8 0 15 5 15 10 0 6 -16 10 -35 10 -19 0 -35 -4 -35 -9z"/>
<path d="M3120 370 c0 -27 5 -50 10 -50 6 0 10 23 10 50 0 28 -4 50 -10 50 -5
0 -10 -22 -10 -50z"/>
<path d="M3362 375 c-27 -56 -27 -58 -2 -45 22 12 42 10 52 -5 4 -5 10 -7 13
-3 4 3 -4 27 -17 52 l-24 47 -22 -46z m27 -24 c-15 -5 -22 6 -14 19 6 9 10 9
16 -1 5 -8 4 -15 -2 -18z"/>
<path d="M3473 403 c-4 -10 2 -23 15 -34 28 -22 27 -27 0 -32 -20 -3 -21 -4
-5 -11 25 -12 47 0 47 25 0 12 -8 23 -20 26 -24 6 -27 23 -4 23 8 0 12 5 9 10
-10 16 -35 12 -42 -7z"/>
<path d="M3660 371 c0 -28 5 -51 10 -51 6 0 10 14 10 31 0 26 2 29 14 20 11
-9 20 -9 35 -2 18 10 20 8 24 -21 3 -25 4 -21 5 16 l2 48 -24 -15 c-22 -15
-26 -15 -50 4 l-26 20 0 -50z"/>
<path d="M3958 409 c-21 -12 -24 -59 -6 -77 15 -15 51 -15 66 0 19 19 15 66
-7 78 -24 12 -31 12 -53 -1z m56 -24 c9 -24 -4 -45 -29 -45 -27 0 -36 17 -23
43 11 21 44 23 52 2z"/>
<path d="M4087 413 c-14 -13 -6 -42 13 -48 27 -8 25 -23 -2 -28 -21 -3 -21 -4
-5 -12 23 -10 50 15 42 37 -4 9 -16 19 -28 23 -19 6 -20 8 -4 12 9 2 17 9 17
14 0 10 -23 12 -33 2z"/>
<path d="M882 365 c-23 -48 -23 -52 8 -33 16 10 24 10 40 0 31 -19 31 -15 8
33 -12 25 -25 45 -28 45 -3 0 -16 -20 -28 -45z m38 -5 c0 -5 -4 -10 -10 -10
-5 0 -10 5 -10 10 0 6 5 10 10 10 6 0 10 -4 10 -10z"/>
<path d="M2032 365 c-23 -48 -23 -52 8 -33 16 10 24 10 40 0 31 -19 31 -15 8
33 -12 25 -25 45 -28 45 -3 0 -16 -20 -28 -45z m38 -5 c0 -5 -4 -10 -10 -10
-5 0 -10 5 -10 10 0 6 5 10 10 10 6 0 10 -4 10 -10z"/>
<path d="M2240 370 c-23 -44 -26 -60 -8 -42 16 16 55 15 61 0 2 -7 7 -10 11
-6 7 6 -29 88 -39 88 -3 0 -14 -18 -25 -40z m29 -19 c-15 -5 -22 6 -14 19 6 9
10 9 16 -1 5 -8 4 -15 -2 -18z"/>
<path d="M3190 365 c0 -25 5 -45 10 -45 6 0 10 14 10 31 0 26 2 29 14 20 11
-9 20 -9 35 -2 18 10 20 8 24 -21 3 -25 4 -21 5 16 l2 48 -26 -17 c-23 -15
-27 -15 -43 -1 -27 24 -31 20 -31 -29z"/>
<path d="M3831 372 c-24 -47 -26 -59 -8 -44 14 12 35 11 55 -2 31 -19 26 20
-7 63 l-19 25 -21 -42z m33 -7 c3 -9 0 -15 -9 -15 -9 0 -12 6 -9 15 4 8 7 15
9 15 2 0 5 -7 9 -15z"/>
</g>
</svg>
